<svg width="36" height="36" viewBox="0 0 36 36" fill="none" xmlns="http://www.w3.org/2000/svg">
<rect width="36" height="36" rx="10" fill="#FFA726"/>
<path d="M16.8722 23.2969C18.1794 23.2969 19.4331 23.8014 20.3575 24.6993C21.2819 25.5972 21.8012 26.8151 21.8012 28.0849C21.8012 28.5929 21.5934 29.08 21.2237 29.4392C20.8539 29.7984 20.3525 30.0001 19.8296 30.0001H9.97159C9.44869 30.0001 8.94721 29.7984 8.57747 29.4392C8.20772 29.08 8 28.5929 8 28.0849C8 26.8151 8.5193 25.5972 9.44367 24.6993C10.368 23.8014 11.6217 23.2969 12.929 23.2969H14.9006H16.8722Z" fill="black"/>
<path d="M11.8588 20.419C11.0521 19.6354 10.5989 18.5725 10.5989 17.4643C10.5989 16.356 11.0521 15.2932 11.8588 14.5095C12.6656 13.7259 13.7597 13.2856 14.9006 13.2856C16.0414 13.2856 17.1356 13.7259 17.9423 14.5095C18.749 15.2932 19.2022 16.356 19.2022 17.4643C19.2022 18.5725 18.749 19.6354 17.9423 20.419C17.1356 21.2027 16.0414 21.6429 14.9006 21.6429C13.7597 21.6429 12.6656 21.2027 11.8588 20.419Z" fill="black"/>
<path d="M26.75 9.64275H24.25V7.21425C24.25 6.89221 24.1183 6.58336 23.8839 6.35565C23.6495 6.12793 23.3315 6 23 6C22.6685 6 22.3505 6.12793 22.1161 6.35565C21.8817 6.58336 21.75 6.89221 21.75 7.21425L21.7944 9.64275H19.25C18.9185 9.64275 18.6005 9.77068 18.3661 9.9984C18.1317 10.2261 18 10.535 18 10.857C18 11.179 18.1317 11.4879 18.3661 11.7156C18.6005 11.9433 18.9185 12.0712 19.25 12.0712L21.7944 12.0281L21.75 14.4997C21.75 14.8218 21.8817 15.1306 22.1161 15.3584C22.3505 15.5861 22.6685 15.714 23 15.714C23.3315 15.714 23.6495 15.5861 23.8839 15.3584C24.1183 15.1306 24.25 14.8218 24.25 14.4997V12.0281L26.75 12.0712C27.0815 12.0712 27.3995 11.9433 27.6339 11.7156C27.8683 11.4879 28 11.179 28 10.857C28 10.535 27.8683 10.2261 27.6339 9.9984C27.3995 9.77068 27.0815 9.64275 26.75 9.64275Z" fill="black"/>
</svg>
