<svg width="36" height="36" viewBox="0 0 36 36" fill="none" xmlns="http://www.w3.org/2000/svg">
<rect width="36" height="36" rx="10" fill="#FFA726"/>
<path d="M11.2262 17.4643C11.2262 18.5725 11.6795 19.6354 12.4862 20.419C13.2929 21.2027 14.387 21.6429 15.5279 21.6429C16.6688 21.6429 17.7629 21.2027 18.5696 20.419C19.3764 19.6354 19.8296 18.5725 19.8296 17.4643C19.8296 16.356 19.3764 15.2932 18.5696 14.5095C17.7629 13.7259 16.6688 13.2856 15.5279 13.2856C14.387 13.2856 13.2929 13.7259 12.4862 14.5095C11.6795 15.2932 11.2262 16.356 11.2262 17.4643ZM14.4021 23.9999L15.0272 25.0119L13.9081 29.0567L12.6982 24.2611C12.631 23.9966 12.3689 23.8236 12.0967 23.8922C9.74419 24.4635 8 26.5332 8 28.9979C8 29.5529 8.46377 30.0002 9.03173 30.0002H22.0241C22.5954 30.0002 23.0558 29.5496 23.0558 28.9979C23.0558 26.5332 21.3116 24.4635 18.9591 23.8922C18.6869 23.8269 18.4248 23.9999 18.3576 24.2611L17.1477 29.0567L16.0286 25.0119L16.6537 23.9999C16.8688 23.6506 16.61 23.2099 16.1933 23.2099H14.8658C14.4491 23.2099 14.1904 23.6539 14.4054 23.9999H14.4021Z" fill="black"/>
<path d="M26.75 9.64275H24.25V7.21425C24.25 6.89221 24.1183 6.58336 23.8839 6.35565C23.6495 6.12793 23.3315 6 23 6C22.6685 6 22.3505 6.12793 22.1161 6.35565C21.8817 6.58336 21.75 6.89221 21.75 7.21425L21.7944 9.64275H19.25C18.9185 9.64275 18.6005 9.77068 18.3661 9.99839C18.1317 10.2261 18 10.535 18 10.857C18 11.179 18.1317 11.4879 18.3661 11.7156C18.6005 11.9433 18.9185 12.0712 19.25 12.0712L21.7944 12.0281L21.75 14.4997C21.75 14.8218 21.8817 15.1306 22.1161 15.3583C22.3505 15.5861 22.6685 15.714 23 15.714C23.3315 15.714 23.6495 15.5861 23.8839 15.3583C24.1183 15.1306 24.25 14.8218 24.25 14.4997V12.0281L26.75 12.0712C27.0815 12.0712 27.3995 11.9433 27.6339 11.7156C27.8683 11.4879 28 11.179 28 10.857C28 10.535 27.8683 10.2261 27.6339 9.99839C27.3995 9.77068 27.0815 9.64275 26.75 9.64275Z" fill="black"/>
</svg>
