<svg width="14" height="14" viewBox="0 0 14 14" fill="none" xmlns="http://www.w3.org/2000/svg">
<path d="M3.55866 3.55851C3.55866 4.47121 3.92122 5.34653 4.5666 5.9919C5.21197 6.63727 6.08729 6.99984 6.99998 6.99984C7.91268 6.99984 8.78799 6.63727 9.43337 5.9919C10.0787 5.34653 10.4413 4.47121 10.4413 3.55851C10.4413 2.64582 10.0787 1.7705 9.43337 1.12513C8.78799 0.479755 7.91268 0.117188 6.99998 0.117188C6.08729 0.117188 5.21197 0.479755 4.5666 1.12513C3.92122 1.7705 3.55866 2.64582 3.55866 3.55851ZM6.09932 8.94096L6.59939 9.77441L5.70411 13.1055L4.73624 9.15605C4.68246 8.93828 4.47276 8.79578 4.25499 8.85224C2.37301 9.32274 0.977661 11.0273 0.977661 13.0571C0.977661 13.5142 1.34868 13.8825 1.80304 13.8825H12.1969C12.654 13.8825 13.0223 13.5115 13.0223 13.0571C13.0223 11.0273 11.627 9.32274 9.74498 8.85224C9.52721 8.79847 9.3175 8.94096 9.26373 9.15605L8.29586 13.1055L7.40057 9.77441L7.90064 8.94096C8.07271 8.65329 7.86569 8.29034 7.53231 8.29034H6.47034C6.13696 8.29034 5.92995 8.65598 6.10201 8.94096H6.09932Z" fill="black"/>
</svg>
