<svg width="18" height="20" viewBox="0 0 18 20" fill="none" xmlns="http://www.w3.org/2000/svg">
<path d="M6.16199 11.2903V7.41881C6.16199 6.60751 6.16199 6.2023 5.90991 5.95022C5.65784 5.69814 5.25262 5.69814 4.44133 5.69814H2.72066C1.90937 5.69814 1.50415 5.69814 1.25208 5.95022C1 6.2023 1 6.60751 1 7.41881V15.1618C1 16.7844 1 17.5948 1.50415 18.099C2.00831 18.6031 2.81874 18.6031 4.44133 18.6031H6.16199M6.16199 11.2903L9.01571 9.86387C9.96208 9.39069 10.4353 9.15323 10.8026 9.31068C10.8811 9.34413 10.9542 9.38907 11.0194 9.44403C11.324 9.70213 11.324 10.2312 11.324 11.2903L13.9962 9.9542C15.112 9.39671 15.6695 9.1171 16.0782 9.36918C16.4868 9.62126 16.486 10.2459 16.486 11.4942V15.1618C16.486 16.7844 16.486 17.5948 15.9818 18.099C15.4777 18.6031 14.6672 18.6031 13.0446 18.6031H6.16199M6.16199 11.2903V18.6031M1 8.27914H6.16199M9.60332 1.39648H5.30166C4.49037 1.39648 4.08515 1.39648 3.83307 1.64856C3.581 1.90064 3.58099 2.30585 3.58099 3.11715M12.1843 1.39648H13.0446M7.88265 3.97748H13.0446" stroke="#707070" stroke-width="1.2905" stroke-linecap="round" stroke-linejoin="round"/>
</svg>
