<svg width="16" height="18" viewBox="0 0 16 18" fill="none" xmlns="http://www.w3.org/2000/svg">
<path d="M5.69548 10.1482V6.70373C5.69548 5.98193 5.69548 5.62141 5.4704 5.39714C5.24533 5.17286 4.88352 5.17286 4.15913 5.17286H2.62278C1.89839 5.17286 1.53658 5.17286 1.3115 5.39714C1.08643 5.62141 1.08643 5.98193 1.08643 6.70373V13.5926C1.08643 15.0362 1.08643 15.7573 1.53658 16.2058C1.98673 16.6543 2.71035 16.6543 4.15913 16.6543H5.69548M5.69548 10.1482L8.24352 8.87909C9.08851 8.4581 9.51101 8.24684 9.83902 8.38691C9.90909 8.41668 9.97433 8.45666 10.0326 8.50555C10.3045 8.73518 10.3045 9.20592 10.3045 10.1482L12.6905 8.95946C13.6868 8.46346 14.1846 8.21469 14.5495 8.43896C14.9144 8.66323 14.9136 9.21894 14.9136 10.3296V13.5926C14.9136 15.0362 14.9136 15.7573 14.4634 16.2058C14.0133 16.6543 13.2897 16.6543 11.8409 16.6543H5.69548M5.69548 10.1482V16.6543M1.08643 7.46916H5.69548M8.76818 1.3457H4.9273C4.20291 1.3457 3.8411 1.3457 3.61603 1.56997C3.39095 1.79425 3.39095 2.15476 3.39095 2.87657M11.0727 1.3457H11.8409M7.23183 3.642H11.8409" stroke="black" stroke-width="1.5" stroke-linecap="round" stroke-linejoin="round"/>
</svg>
