<svg width="18" height="14" viewBox="0 0 18 14" fill="none" xmlns="http://www.w3.org/2000/svg">
<path d="M16.3125 13.75H1.6875C0.75375 13.75 0 12.9963 0 12.0625V1.9375C0 1.00375 0.75375 0.25 1.6875 0.25H16.3125C17.2463 0.25 18 1.00375 18 1.9375V12.0625C18 12.9963 17.2463 13.75 16.3125 13.75ZM1.6875 1.375C1.3725 1.375 1.125 1.6225 1.125 1.9375V12.0625C1.125 12.3775 1.3725 12.625 1.6875 12.625H16.3125C16.6275 12.625 16.875 12.3775 16.875 12.0625V1.9375C16.875 1.6225 16.6275 1.375 16.3125 1.375H1.6875Z" fill="black"/>
<path d="M9.34616 9.20495C8.52837 9.20495 7.78067 8.88995 7.21991 8.3162L1.08649 2.0387C0.864521 1.8137 0.876204 1.4537 1.10986 1.23995C1.34351 1.0262 1.71736 1.03745 1.93933 1.26245L8.07274 7.53995C8.73866 8.2262 9.95366 8.2262 10.6196 7.53995L16.753 1.2737C16.975 1.0487 17.3488 1.03745 17.5825 1.2512C17.8161 1.46495 17.8278 1.82495 17.6058 2.04995L11.4724 8.32745C10.9116 8.9012 10.1639 9.2162 9.34616 9.2162V9.20495Z" fill="black"/>
</svg>
