<svg width="36" height="36" viewBox="0 0 36 36" fill="none" xmlns="http://www.w3.org/2000/svg">
<path d="M10.56 13.7046C12.9327 9.5957 18.1862 8.18761 22.2952 10.5603C23.9233 11.5 25.1984 12.9477 25.9248 14.6816C26.6511 16.4154 26.7888 18.3397 26.3165 20.1592C26.0563 21.1615 24.8356 21.4438 24.1418 20.7696L24.0641 20.6878L22.2223 18.5712C21.4017 17.6286 22.242 16.2066 23.4316 16.421L23.5404 16.4455L23.9642 16.5552C23.6448 15.2385 22.8986 14.0647 21.8421 13.2166C20.7855 12.3685 19.478 11.8939 18.1235 11.8668C16.769 11.8398 15.4435 12.2617 14.3539 13.0669C13.2644 13.8721 12.4719 15.0153 12.1001 16.3181C11.7283 17.6209 11.7981 19.0101 12.2987 20.269C12.7992 21.528 13.7023 22.5859 14.8671 23.2778C16.0319 23.9697 17.393 24.2567 18.738 24.0939C20.083 23.9312 21.3363 23.3279 22.3025 22.3782C22.4174 22.2651 22.5535 22.1758 22.7029 22.1154C22.8523 22.0549 23.0122 22.0245 23.1734 22.0258C23.3346 22.0272 23.4939 22.0602 23.6423 22.1231C23.7907 22.186 23.9253 22.2776 24.0383 22.3925C24.1513 22.5074 24.2406 22.6434 24.3011 22.7929C24.3615 22.9423 24.392 23.1021 24.3906 23.2633C24.3893 23.4245 24.3562 23.5838 24.2933 23.7323C24.2304 23.8807 24.1389 24.0152 24.024 24.1282C21.3395 26.7693 17.1267 27.4157 13.7042 25.4398C9.59534 23.0671 8.18725 17.8143 10.56 13.7046ZM17.9997 12.6819C18.3047 12.6819 18.5987 12.7954 18.8245 13.0004C19.0503 13.2053 19.1918 13.487 19.2212 13.7905L19.227 13.9092V17.492L20.9124 19.1774C21.1359 19.3997 21.2653 19.6993 21.2738 20.0144C21.2824 20.3294 21.1694 20.6356 20.9583 20.8697C20.7472 21.1037 20.4542 21.2475 20.14 21.2714C19.8257 21.2953 19.5143 21.1973 19.2703 20.9979L19.1771 20.9136L17.1316 18.8682C16.931 18.6675 16.8061 18.4035 16.7782 18.1212L16.7724 18.0001V13.9092C16.7724 13.5837 16.9017 13.2715 17.1319 13.0413C17.362 12.8112 17.6742 12.6819 17.9997 12.6819Z" fill="black"/>
</svg>
