<svg width="58" height="58" viewBox="0 0 58 58" fill="none" xmlns="http://www.w3.org/2000/svg">
<path d="M6.57812 35.4062V29H12.9844V35.4062H6.57812ZM0.171875 29V22.5937H6.57812V29H0.171875ZM29 6.57812V0.171875H35.4062V6.57812H29ZM4.97656 14.5859H14.5859V4.97656H4.97656V14.5859ZM4.97656 53.0234H14.5859V43.4141H4.97656V53.0234ZM43.4141 14.5859H53.0234V4.97656H43.4141V14.5859ZM19.3906 35.4062V29H12.9844V22.5937H25.7969V35.4062H19.3906ZM22.5937 19.3906V6.57812H29V12.9844H35.4062V19.3906H22.5937ZM7.37891 12.1836V7.37891H12.1836V12.1836H7.37891ZM7.37891 50.6211V45.8164H12.1836V50.6211H7.37891ZM45.8164 12.1836V7.37891H50.6211V12.1836H45.8164ZM41.8125 48.2187H35.4062C34.4987 48.2187 33.7385 47.9112 33.1256 47.2962C32.5128 46.6812 32.2053 45.921 32.2031 45.0156C32.201 44.1102 32.5085 43.35 33.1256 42.735C33.7428 42.12 34.503 41.8125 35.4062 41.8125H41.8125V35.4062C41.8125 34.4987 42.12 33.7385 42.735 33.1256C43.35 32.5128 44.1102 32.2053 45.0156 32.2031C45.921 32.201 46.6823 32.5085 47.2994 33.1256C47.9166 33.7428 48.223 34.503 48.2187 35.4062V41.8125H54.625C55.5325 41.8125 56.2938 42.12 56.9088 42.735C57.5238 43.35 57.8303 44.1102 57.8281 45.0156C57.826 45.921 57.5185 46.6823 56.9056 47.2994C56.2928 47.9166 55.5325 48.223 54.625 48.2187H48.2187V54.625C48.2187 55.5325 47.9112 56.2938 47.2962 56.9088C46.6812 57.5238 45.921 57.8303 45.0156 57.8281C44.1102 57.826 43.35 57.5185 42.735 56.9056C42.12 56.2928 41.8125 55.5325 41.8125 54.625V48.2187ZM0.171875 16.1875V3.375C0.171875 2.46745 0.479375 1.70724 1.09438 1.09438C1.70938 0.481511 2.46958 0.17401 3.375 0.171875H16.1875C17.0951 0.171875 17.8563 0.479375 18.4713 1.09438C19.0863 1.70938 19.3928 2.46958 19.3906 3.375V16.1875C19.3906 17.0951 19.0831 17.8563 18.4681 18.4713C17.8531 19.0863 17.0929 19.3928 16.1875 19.3906H3.375C2.46745 19.3906 1.70724 19.0831 1.09438 18.4681C0.481511 17.8531 0.17401 17.0929 0.171875 16.1875ZM0.171875 54.625V41.8125C0.171875 40.9049 0.479375 40.1447 1.09438 39.5319C1.70938 38.919 2.46958 38.6115 3.375 38.6094H16.1875C17.0951 38.6094 17.8563 38.9169 18.4713 39.5319C19.0863 40.1469 19.3928 40.9071 19.3906 41.8125V54.625C19.3906 55.5325 19.0831 56.2938 18.4681 56.9088C17.8531 57.5238 17.0929 57.8303 16.1875 57.8281H3.375C2.46745 57.8281 1.70724 57.5206 1.09438 56.9056C0.481511 56.2906 0.17401 55.5304 0.171875 54.625ZM38.6094 16.1875V3.375C38.6094 2.46745 38.9169 1.70724 39.5319 1.09438C40.1469 0.481511 40.9071 0.17401 41.8125 0.171875H54.625C55.5325 0.171875 56.2938 0.479375 56.9088 1.09438C57.5238 1.70938 57.8303 2.46958 57.8281 3.375V16.1875C57.8281 17.0951 57.5206 17.8563 56.9056 18.4713C56.2906 19.0863 55.5304 19.3928 54.625 19.3906H41.8125C40.9049 19.3906 40.1447 19.0831 39.5319 18.4681C38.919 17.8531 38.6115 17.0929 38.6094 16.1875Z" fill="black"/>
</svg>
