<svg width="41" height="41" viewBox="0 0 41 41" fill="none" xmlns="http://www.w3.org/2000/svg">
<rect width="41" height="41" rx="7" fill="#FFA726"/>
<path d="M20.5 16.7647V19.5882M20.5 22.4117V22.4212M26.1667 13C26.9181 13 27.6388 13.2975 28.1701 13.827C28.7015 14.3565 29 15.0747 29 15.8235V23.3529C29 24.1018 28.7015 24.82 28.1701 25.3495C27.6388 25.879 26.9181 26.1765 26.1667 26.1765H21.4444L16.7222 29V26.1765H14.8333C14.0819 26.1765 13.3612 25.879 12.8299 25.3495C12.2985 24.82 12 24.1018 12 23.3529V15.8235C12 15.0747 12.2985 14.3565 12.8299 13.827C13.3612 13.2975 14.0819 13 14.8333 13H26.1667Z" stroke="black" stroke-width="2" stroke-linecap="round" stroke-linejoin="round"/>
</svg>
